<?xml version="1.0" encoding="utf-8"?>
<!-- Generator: Adobe Illustrator 19.0.0, SVG Export Plug-In . SVG Version: 6.00 Build 0)  -->
<svg version="1.1" id="Capa_1" xmlns="http://www.w3.org/2000/svg" xmlns:xlink="http://www.w3.org/1999/xlink" x="0px" y="0px"
	 viewBox="0 0 622.9 216.4" style="enable-background:new 0 0 622.9 216.4;" xml:space="preserve">
<style type="text/css">
	.st0{fill:none;stroke:#000000;stroke-width:6;stroke-linecap:round;stroke-linejoin:round;}
	.st1{fill:#3F51B5;}
	.st2{fill:#90A4AE;}
	.st3{fill:#37474F;}
	.st4{fill:#253278;}
	.st5{stroke:#000000;stroke-miterlimit:10;}
</style>
<g id="XMLID_8_">
	<path id="XMLID_12_" class="st0" d="M581,74.3c9.7,0,17.6-7.9,17.6-17.6s-7.9-17.6-17.6-17.6c0-9.7-7.9-17.6-17.6-17.6
		c-9.7,0-17.6,7.9-17.6,17.6c0-9.7-7.9-17.6-17.6-17.6c-9.7,0-17.6,7.9-17.6,17.6c0-9.7-7.9-17.6-17.6-17.6
		c-9.7,0-17.6,7.9-17.6,17.6c-9.7,0-17.6,7.9-17.6,17.6s7.9,17.6,17.6,17.6"/>
	<path id="XMLID_11_" class="st0" d="M510.5,197.7l-8.8-123.4"/>
	<path id="XMLID_10_" class="st0" d="M545.8,197.7l8.8-123.4"/>
	<path id="XMLID_9_" class="st0" d="M598.7,74.3c4.4,0,7.9,3.5,7.1,8.8l-22.9,105.8c-0.9,4.4-6.2,8.8-10.6,8.8h-88.2
		c-5.3,0-9.7-3.5-10.6-8.8L450.6,83.1c-0.9-5.3,2.6-8.8,7.1-8.8H598.7z"/>
</g>
<g id="XMLID_13_">
	<path id="XMLID_21_" class="st1" d="M396,160.2V97.7h-16.7v62.5c0,20.8,16.7,37.5,37.5,37.5v-16.7C405.2,181.1,396,171.9,396,160.2
		z"/>
	<circle id="XMLID_20_" class="st2" cx="316.9" cy="97.7" r="79.2"/>
	<circle id="XMLID_19_" class="st3" cx="316.9" cy="97.7" r="8.3"/>
	<g id="XMLID_14_">
		<circle id="XMLID_18_" class="st4" cx="316.9" cy="56.1" r="20.8"/>
		<circle id="XMLID_17_" class="st4" cx="316.9" cy="139.4" r="20.8"/>
		<circle id="XMLID_16_" class="st4" cx="358.5" cy="97.7" r="20.8"/>
		<circle id="XMLID_15_" class="st4" cx="275.2" cy="97.7" r="20.8"/>
	</g>
</g>
<g id="XMLID_1_">
	<path id="XMLID_2_" class="st5" d="M193.4,99.7H56.9l129.8-34.3c2-0.5,3.2-2.6,2.7-4.6c0,0,0,0,0,0l-7.7-28.3
		c-1.7-5.9-7.8-9.4-13.7-7.8L24.5,62.6c-2.9,0.7-5.4,2.6-6.8,5.2c-1.5,2.5-1.9,5.5-1.1,8.4l7.2,26.6c-0.1,0.3-0.1,0.5-0.1,0.8v83
		c0,6.2,5.1,11.3,11.3,11.3h150.8c6.2,0,11.3-5.1,11.3-11.3v-83C197.1,101.4,195.5,99.7,193.4,99.7z M108.5,48.2l35.8,20.7
		L99.2,80.7L63.4,60.1L108.5,48.2z M170,31.9c0.3-0.1,0.6-0.1,0.9-0.1c1.7,0,3.2,1,3.6,2.6l6.7,24.6l-26.5,7l-35.8-20.7L170,31.9z
		 M24.1,71.5c0.5-0.8,1.3-1.5,2.2-1.7l26.7-7l35.8,20.7L30.5,98.9l-6.7-24.7C23.6,73.3,23.7,72.3,24.1,71.5L24.1,71.5z M189.6,186.4
		c0,2.1-1.7,3.8-3.8,3.8H35c-2.1,0-3.8-1.7-3.8-3.8v-79.2h158.4V186.4z"/>
</g>
</svg>
